<svg xmlns="http://www.w3.org/2000/svg" version="1.1" xmlns:xlink="http://www.w3.org/1999/xlink" xmlns:svgjs="http://svgjs.dev/svgjs" width="1440" height="400" preserveAspectRatio="none" viewBox="0 0 1440 400"><g mask="url(&quot;#SvgjsMask1000&quot;)" fill="none"><rect width="1440" height="400" x="0" y="0" fill="rgba(215, 218, 221, 1)"></rect><path d="M0 303.37L10 343.29L20 328.86L30 317.57L40 304.96L50 330.09L60 338.11L70 353.65L80 369.2L90 329.12L100 340.96L110 297.12L120 261.61L130 284.6L140 310.66L150 337.29L160 357.85L170 335.78L180 384.96L190 352.06L200 355.73L210 388.28L220 387.66L230 349.98L240 391.05L250 352.79L260 365.84L270 399.42L280 399.82L290 384.82L300 394.69L310 365.12L320 375.26L330 355.96L340 360.68L350 312.64L360 355.03L370 352.74L380 375.79L390 365.63L400 318.3L410 337.48L420 298.68L430 347.24L440 388.56L450 345.53L460 361.54L470 320.15L480 278.07L490 317.03L500 273.85L510 292.84L520 245.64L530 256.81L540 286.53L550 242.55L560 261.44L570 306.16L580 321.85L590 358.12L600 396.69L610 381.97L620 389.67L630 344.71L640 308.59L650 346.6L660 299.49L670 280.66L680 313.68L690 355.31L700 368.32L710 346.3L720 301.96L730 290.92L740 286L750 268.87L760 223.14L770 244.98L780 286.08L790 329.62L800 327.28L810 370.52L820 367.23L830 385.23L840 336.62L850 307.02L860 330.2L870 291.94L880 269.26L890 306.12L900 341.36L910 301.73L920 284.83L930 265.55L940 302.58L950 288.47L960 240.62L970 207.64L980 239.11L990 278.88L1000 231.36L1010 224.6L1020 189.17L1030 233.2L1040 268.48L1050 230.4L1060 257.16L1070 292.73L1080 330.17L1090 319.42L1100 269.43L1110 275.53L1120 227.27L1130 187.84L1140 155.59L1150 146.42L1160 100.94L1170 121.38L1180 153.48L1190 181.35L1200 171.78L1210 131.45L1220 99.18L1230 79.62L1240 121.52L1250 171.32L1260 217.5L1270 234.96L1280 283.53L1290 244.5L1300 256.41L1310 306.08L1320 341.27L1330 337.96L1340 382.93L1350 387.84L1360 339.12L1370 292.13L1380 254.93L1390 290.09L1400 298.66L1410 267.06L1420 282.12L1430 269.53L1440 270.52" stroke="#224b75" stroke-width="2"></path><path d="M0 303.37L10 343.29L20 328.86L30 317.57L40 304.96L50 330.09L60 338.11L70 353.65L80 369.2L90 329.12L100 340.96L110 297.12L120 261.61L130 284.6L140 310.66L150 337.29L160 357.85L170 335.78L180 384.96L190 352.06L200 355.73L210 388.28L220 387.66L230 349.98L240 391.05L250 352.79L260 365.84L270 399.42L280 399.82L290 384.82L300 394.69L310 365.12L320 375.26L330 355.96L340 360.68L350 312.64L360 355.03L370 352.74L380 375.79L390 365.63L400 318.3L410 337.48L420 298.68L430 347.24L440 388.56L450 345.53L460 361.54L470 320.15L480 278.07L490 317.03L500 273.85L510 292.84L520 245.64L530 256.81L540 286.53L550 242.55L560 261.44L570 306.16L580 321.85L590 358.12L600 396.69L610 381.97L620 389.67L630 344.71L640 308.59L650 346.6L660 299.49L670 280.66L680 313.68L690 355.31L700 368.32L710 346.3L720 301.96L730 290.92L740 286L750 268.87L760 223.14L770 244.98L780 286.08L790 329.62L800 327.28L810 370.52L820 367.23L830 385.23L840 336.62L850 307.02L860 330.2L870 291.94L880 269.26L890 306.12L900 341.36L910 301.73L920 284.83L930 265.55L940 302.58L950 288.47L960 240.62L970 207.64L980 239.11L990 278.88L1000 231.36L1010 224.6L1020 189.17L1030 233.2L1040 268.48L1050 230.4L1060 257.16L1070 292.73L1080 330.17L1090 319.42L1100 269.43L1110 275.53L1120 227.27L1130 187.84L1140 155.59L1150 146.42L1160 100.94L1170 121.38L1180 153.48L1190 181.35L1200 171.78L1210 131.45L1220 99.18L1230 79.62L1240 121.52L1250 171.32L1260 217.5L1270 234.96L1280 283.53L1290 244.5L1300 256.41L1310 306.08L1320 341.27L1330 337.96L1340 382.93L1350 387.84L1360 339.12L1370 292.13L1380 254.93L1390 290.09L1400 298.66L1410 267.06L1420 282.12L1430 269.53L1440 270.52L1440 400L0 400z" fill="url(&quot;#SvgjsLinearGradient1001&quot;)"></path></g><defs><mask id="SvgjsMask1000"><rect width="1440" height="400" fill="#ffffff"></rect></mask><linearGradient x1="50%" y1="0%" x2="50%" y2="100%" id="SvgjsLinearGradient1001"><stop stop-opacity="0.65" stop-color="#224b75" offset="0"></stop><stop stop-opacity="0" stop-color="#508dcc" offset="0.8"></stop></linearGradient></defs></svg>